<?xml version="1.0" encoding="utf-8"?>
<!-- Generator: Adobe Illustrator 24.2.1, SVG Export Plug-In . SVG Version: 6.00 Build 0)  -->
<svg version="1.1" id="Layer_1"
	xmlns="http://www.w3.org/2000/svg" x="0px" y="0px" viewBox="0 0 805.4 172.3" style="enable-background:new 0 0 805.4 172.3;" xml:space="preserve" width="100%" height="100%" preserveAspectRatio="none">
	<style type="text/css">
	.st0{fill:#FFFFFF;}
	</style>
	<g class="st0">
		<g>
			<g>
				<g>
					<g>
						<path d="M201.8,0.7h21.8v29H235l29.7-29h30l-41.2,38.5l45.2,39.3h-31.7l-32.4-29.9h-11v29.9h-21.8L201.8,0.7L201.8,0.7z"/>
					</g>
					<g>
						<path d="M346.1,0.7h29.2l39.2,77.8h-23.9l-7.1-13.9h-46.2l-6.9,13.9h-24.7L346.1,0.7z M376,48.4l-15.5-31l-15.3,31H376z"/>
					</g>
					<g>
						<path d="M423.4,0.7h61.8c12.7,0,18.3,1.2,22.4,4.9c4.2,3.6,6.1,10.3,6.1,20.8c0,14.5-3.2,20.2-12.4,22.4
						c8.9,1.6,11.6,5.7,11.4,17.5v12.2h-22.1v-9.7c-0.1-8.4-2.3-10.2-12-9.9h-33.4v19.6h-21.7L423.4,0.7L423.4,0.7z M479.2,39.9
						c10.5,0,12.6-1.4,12.6-9.1c0-5-0.4-7.1-1.8-8.8c-1.6-1.9-3.4-2.2-10-2.2h-34.8v20.1L479.2,39.9L479.2,39.9z"/>
					</g>
					<g>
						<path d="M564.6,0.7h29.2l39.2,77.8h-23.9l-7.1-13.9h-46.2l-6.9,13.9h-24.7L564.6,0.7z M594.5,48.4l-15.5-31l-15.3,31H594.5z"/>
					</g>
					<g>
						<path d="M658.7,19.9h-31.9V0.7h85.7v19.2h-31.9v58.6h-21.8L658.7,19.9L658.7,19.9z"/>
					</g>
					<g>
						<path d="M804.6,0.7v17.6h-57.9v13.4h54.6v15.4h-54.6v13.8h58.7v17.6h-80.2V0.7H804.6z"/>
					</g>
				</g>
				<g>
					<g>
						<path d="M292.5,142.2c-0.1,11.3-0.4,15.2-1.9,18.7c-2.8,6.6-8.6,9.8-19.8,10.6c-4.4,0.5-13,0.6-27.3,0.6
						c-20.6,0-27.3-1.1-33.1-5.1c-7.1-4.9-9.1-13.1-9.1-36.2c0-20.5,2.1-27.9,9.7-32.6c6.5-4.1,13.3-5.1,33.4-5.1
						c26.8,0,32.6,0.6,38.7,3.9c5.8,3.1,8.5,10,8.5,21.5v2.6h-20.9c-0.4-8.5-2-9.2-21-9.2c-17.8,0-21.1,0.5-23.8,3
						c-2.6,2.6-3.1,5.7-3.1,18.3c0,18.7,1.6,20.1,22.6,20.1c16.2,0,18.6-0.1,21.6-1.5c3.1-1.4,4.3-3.9,4.3-9.4L292.5,142.2
						L292.5,142.2z"/>
					</g>
					<g>
						<path d="M379.3,94c11.1,2.2,16.5,8.4,18,20.9c0.4,3.1,0.6,9.4,0.6,18.9c0,18.8-1.8,26.4-8,31.9c-4.3,4-10.3,5.8-20.8,6.3
						c-3.9,0.2-13.4,0.4-20.4,0.4c-17.1,0-25.8-0.4-30.1-1.3c-8-1.5-12.6-4.8-15.3-10.5c-2.8-5.7-3.4-11.4-3.4-28.5
						c0-13.1,0.2-16.3,1.5-21.6c2-8.3,6.2-12.7,14.3-15.3c6-1.9,12.6-2.3,31.5-2.3C367.9,92.9,374.2,93.1,379.3,94z M325.8,114.7
						c-2.9,2.4-3.8,6.3-3.8,17.5c0,11.4,0.9,15.6,3.5,18.1c2.9,2.6,6.5,3,22.9,3c18.8,0,22.7-0.7,25.2-4.4c2-2.8,2.6-6.8,2.6-17.1
						c0-19.6-0.3-19.8-27.2-19.8C333,111.9,328.6,112.5,325.8,114.7z"/>
					</g>
					<g>
						<path d="M407,93.7h34.6l26.1,51.7l26-51.7h34.4v77.8h-21.3l1.1-60.1l-31.8,60.1h-17.4l-31.3-60.1l0.7,60.1H407V93.7L407,93.7z" />
					</g>
					<g>
						<path d="M538.8,93.7h64.7c8.3,0,12.8,0.8,16.5,2.8c5.8,3.3,8.2,8.5,8.2,18.4c0,10.1-3.2,15.4-10,16.8c9.7,2,12.9,6.5,12.9,17.9
						c0,9.8-2.6,16-8.3,19.2c-3.3,1.9-8.1,2.7-16.3,2.7h-67.7L538.8,93.7L538.8,93.7z M596.8,124.7c4.2,0,5.7-0.2,7.1-0.9
						c1.7-1.1,2.8-3.1,2.8-5.8c0-3.1-1.4-5.5-3.8-6.4c-1.4-0.5-2.5-0.6-6.7-0.6h-36.1v13.8H596.8z M599.1,154.2
						c4.4,0,5.3-0.1,6.7-0.6c2.2-0.8,3.4-3.1,3.4-6.4c0-3.4-1.3-5.7-3.7-6.6c-1.3-0.5-2.2-0.6-7-0.6h-38.5v14.2H599.1z"/>
					</g>
					<g>
						<path d="M672.2,93.7h29.2l39.2,77.8h-23.9l-7.1-13.9h-46.2l-6.9,13.9h-24.7L672.2,93.7z M702.1,141.4l-15.5-31l-15.3,31H702.1z
						"/>
					</g>
					<g>
						<path d="M759.4,112.9H725V93.7h80.4v19.2h-24.2v58.6h-21.8L759.4,112.9L759.4,112.9z"/>
					</g>
				</g>
			</g>
		</g>
		<g>
			<path d="M114.5,34.3H34.3v137.4H0V0h114.5L114.5,34.3L114.5,34.3z M171.7,0v171.7H57.1v-34.3h80.3V0H171.7z"/>
		</g>
	</g>
</svg>
